<svg xmlns="http://www.w3.org/2000/svg" viewBox="0 0 200 200" width="200" height="200">
  <!-- Background -->
  <rect width="200" height="200" fill="#f97316"/>
  
  <!-- Head -->
  <circle cx="100" cy="70" r="35" fill="#ffc69b"/>
  
  <!-- Hair (casual) -->
  <path d="M 65 70 Q 65 38 100 38 Q 135 38 135 70" fill="#8b4513"/>
  <circle cx="80" cy="50" r="8" fill="#8b4513"/>
  <circle cx="120" cy="50" r="8" fill="#8b4513"/>
  
  <!-- Eyes -->
  <circle cx="90" cy="68" r="5" fill="#000"/>
  <circle cx="110" cy="68" r="5" fill="#000"/>
  <circle cx="92" cy="66" r="2" fill="#fff"/>
  <circle cx="112" cy="66" r="2" fill="#fff"/>
  
  <!-- Happy smile -->
  <path d="M 88 82 Q 100 92 112 82" stroke="#000" stroke-width="2.5" fill="none" stroke-linecap="round"/>
  
  <!-- Neck -->
  <rect x="90" y="100" width="20" height="12" fill="#ffc69b"/>
  
  <!-- Body (Casual) -->
  <rect x="60" y="112" width="80" height="75" fill="#6366f1" rx="5"/>
  
  <!-- Shirt pattern -->
  <rect x="70" y="118" width="60" height="25" fill="#818cf8" opacity="0.6"/>
  
  <!-- Arms -->
  <rect x="25" y="125" width="35" height="18" fill="#ffc69b" rx="8"/>
  <rect x="140" y="125" width="35" height="18" fill="#ffc69b" rx="8"/>
  
  <!-- Hand wave gesture -->
  <circle cx="175" cy="115" r="8" fill="#ffc69b"/>
</svg>